<svg id="Слой_1" data-name="Слой 1" xmlns="http://www.w3.org/2000/svg" viewBox="0 0 131.95 118.4"><defs><style>.cls-1{fill:#fff;}.cls-2{fill:#1e1e1e;}</style></defs><title>logo-light</title><polygon class="cls-1" points="48.53 74.22 23.14 74.22 23.14 0 48.53 0 48.53 15.62 38.76 15.62 38.76 58.59 48.53 58.59 48.53 74.22"/><polygon class="cls-2" points="109.07 74.22 83.68 74.22 83.68 58.59 93.45 58.59 93.45 15.62 83.68 15.62 83.68 0 109.07 0 109.07 74.22"/><path d="M23.28,120.79a7.87,7.87,0,0,1-.65,2.71,6.3,6.3,0,0,1-1.49,2,6.51,6.51,0,0,1-2.21,1.31,8.6,8.6,0,0,1-2.85.46,7.27,7.27,0,0,1-3.13-.65,6.47,6.47,0,0,1-2.29-1.82A8.17,8.17,0,0,1,9.24,122a12.5,12.5,0,0,1-.5-3.61v-2.68a12.13,12.13,0,0,1,.52-3.62,8.4,8.4,0,0,1,1.48-2.82,6.64,6.64,0,0,1,2.32-1.82,6.86,6.86,0,0,1,3-.65,8.48,8.48,0,0,1,2.92.46,6.09,6.09,0,0,1,2.18,1.33,6,6,0,0,1,1.42,2.1,9.27,9.27,0,0,1,.66,2.8H19.46a6.15,6.15,0,0,0-.27-1.55,3,3,0,0,0-.61-1.12,2.63,2.63,0,0,0-1-.67,4.23,4.23,0,0,0-1.46-.22,2.93,2.93,0,0,0-1.54.38,3,3,0,0,0-1.09,1.12,5.74,5.74,0,0,0-.64,1.81,13.76,13.76,0,0,0-.2,2.44v2.71a8.76,8.76,0,0,0,.83,4.35,2.8,2.8,0,0,0,2.61,1.4,3.35,3.35,0,0,0,2.38-.8,3.58,3.58,0,0,0,1-2.59Z" transform="translate(-8.74 -8.91)"/><path d="M40.15,118.54a11.72,11.72,0,0,1-.51,3.53,8.31,8.31,0,0,1-1.46,2.77,6.65,6.65,0,0,1-2.33,1.81,7.23,7.23,0,0,1-3.1.65,7,7,0,0,1-3.06-.65,6.26,6.26,0,0,1-2.26-1.82A8.29,8.29,0,0,1,26,122.06a12.28,12.28,0,0,1-.48-3.52v-2.9a12.35,12.35,0,0,1,.48-3.53,8.34,8.34,0,0,1,1.39-2.78,6.31,6.31,0,0,1,2.25-1.82,6.82,6.82,0,0,1,3.06-.66,7.13,7.13,0,0,1,3.11.66,6.67,6.67,0,0,1,2.33,1.82,8.46,8.46,0,0,1,1.46,2.78,11.67,11.67,0,0,1,.51,3.53Zm-3.9-2.93a12,12,0,0,0-.2-2.24,5.7,5.7,0,0,0-.62-1.76,3.21,3.21,0,0,0-1.09-1.16,2.94,2.94,0,0,0-1.6-.42,2.75,2.75,0,0,0-1.56.42,2.94,2.94,0,0,0-1,1.16,5.69,5.69,0,0,0-.55,1.76,14.07,14.07,0,0,0-.17,2.24v2.93a14.13,14.13,0,0,0,.17,2.23,5.84,5.84,0,0,0,.55,1.77,2.93,2.93,0,0,0,1,1.18,2.76,2.76,0,0,0,1.57.42,2.9,2.9,0,0,0,1.59-.42,3.22,3.22,0,0,0,1.08-1.17,5.86,5.86,0,0,0,.62-1.77,11.15,11.15,0,0,0,.21-2.24Z" transform="translate(-8.74 -8.91)"/><path d="M43,127V107.12h5.15a9.19,9.19,0,0,1,3.59.68,8,8,0,0,1,2.75,1.89,8.44,8.44,0,0,1,1.76,2.89,10.66,10.66,0,0,1,.62,3.69v1.64a10.56,10.56,0,0,1-.62,3.68,8.82,8.82,0,0,1-1.74,2.89,8,8,0,0,1-2.7,1.88,8.87,8.87,0,0,1-3.47.67Zm3.86-16.79v13.7h1.48a4.41,4.41,0,0,0,1.93-.41,4,4,0,0,0,1.45-1.19,5.54,5.54,0,0,0,.91-1.89,9.38,9.38,0,0,0,.32-2.54v-1.67a8.85,8.85,0,0,0-.31-2.44,5.55,5.55,0,0,0-.92-1.89,4.07,4.07,0,0,0-1.5-1.23,4.7,4.7,0,0,0-2.07-.44Z" transform="translate(-8.74 -8.91)"/><path d="M72.11,118.31H63.93v5.61h9.56V127H60.08V107.12H73.45v3.13H63.93v5h8.18Z" transform="translate(-8.74 -8.91)"/><path d="M89.78,127H86l-5.54-12.84V127H76.55V107.12h3.87l5.5,12.79V107.12h3.85Z" transform="translate(-8.74 -8.91)"/><path d="M107.35,118.54a12,12,0,0,1-.5,3.53,8.15,8.15,0,0,1-1.47,2.77,6.47,6.47,0,0,1-2.33,1.81,7.18,7.18,0,0,1-3.09.65,7,7,0,0,1-3.07-.65,6.31,6.31,0,0,1-2.25-1.82,8.31,8.31,0,0,1-1.4-2.77,12.28,12.28,0,0,1-.47-3.52v-2.9a12.35,12.35,0,0,1,.47-3.53,8.36,8.36,0,0,1,1.4-2.78,6.31,6.31,0,0,1,2.25-1.82,6.77,6.77,0,0,1,3-.66,7.07,7.07,0,0,1,3.11.66,6.5,6.5,0,0,1,2.33,1.82,8.29,8.29,0,0,1,1.47,2.78,12,12,0,0,1,.5,3.53Zm-3.89-2.93a12,12,0,0,0-.2-2.24,5.7,5.7,0,0,0-.62-1.76,3.3,3.3,0,0,0-1.09-1.16,3,3,0,0,0-1.61-.42,2.75,2.75,0,0,0-1.56.42,3,3,0,0,0-1,1.16,5.69,5.69,0,0,0-.54,1.76,14.07,14.07,0,0,0-.17,2.24v2.93a14.13,14.13,0,0,0,.17,2.23,5.85,5.85,0,0,0,.54,1.77,3,3,0,0,0,1,1.18,2.8,2.8,0,0,0,1.58.42,2.9,2.9,0,0,0,1.59-.42,3.22,3.22,0,0,0,1.08-1.17,6.14,6.14,0,0,0,.62-1.77,11.15,11.15,0,0,0,.21-2.24Z" transform="translate(-8.74 -8.91)"/><path d="M124.89,110.25h-6.14V127H114.9V110.25h-6.06v-3.13h16Z" transform="translate(-8.74 -8.91)"/><path d="M139.31,118.31h-8.17v5.61h9.56V127H127.28V107.12h13.37v3.13h-9.51v5h8.17Z" transform="translate(-8.74 -8.91)"/></svg>