<svg id="Слой_1" data-name="Слой 1" xmlns="http://www.w3.org/2000/svg" viewBox="0 0 191.16 48.43"><defs><style>.cls-1{fill:#fff;}.cls-2{fill:#1e1e1e;}</style></defs><title>logo-light-long</title><polygon class="cls-1" points="16.57 48.43 0 48.43 0 0 16.57 0 16.57 10.2 10.2 10.2 10.2 38.23 16.57 38.23 16.57 48.43"/><polygon class="cls-2" points="56.08 48.43 39.51 48.43 39.51 38.23 45.88 38.23 45.88 10.2 39.51 10.2 39.51 0 56.08 0 56.08 48.43"/><path d="M86.81,31.42a7.11,7.11,0,0,1-.59,2.47,5.82,5.82,0,0,1-1.36,1.87,6,6,0,0,1-2,1.19,7.61,7.61,0,0,1-2.59.42,6.56,6.56,0,0,1-2.86-.6,5.73,5.73,0,0,1-2.09-1.65A7.5,7.5,0,0,1,74,32.55a11.33,11.33,0,0,1-.45-3.29V26.82A10.8,10.8,0,0,1,74,23.51a7.75,7.75,0,0,1,1.34-2.57,6.12,6.12,0,0,1,2.12-1.66,6.42,6.42,0,0,1,2.79-.59,7.86,7.86,0,0,1,2.66.42,5.72,5.72,0,0,1,2,1.21,5.65,5.65,0,0,1,1.29,1.92,8.36,8.36,0,0,1,.6,2.56H83.33a6.16,6.16,0,0,0-.24-1.42,2.78,2.78,0,0,0-.56-1,2.39,2.39,0,0,0-.93-.61,3.73,3.73,0,0,0-1.32-.21,2.73,2.73,0,0,0-1.41.35,2.88,2.88,0,0,0-1,1,5.38,5.38,0,0,0-.58,1.66,12.31,12.31,0,0,0-.18,2.22v2.47a8.14,8.14,0,0,0,.75,4,2.57,2.57,0,0,0,2.39,1.28,3.08,3.08,0,0,0,2.17-.73,3.32,3.32,0,0,0,.89-2.36Z" transform="translate(-2.75 -2.82)"/><path d="M102.2,29.36a10.94,10.94,0,0,1-.46,3.22,7.55,7.55,0,0,1-1.34,2.53,6,6,0,0,1-2.12,1.65,6.49,6.49,0,0,1-2.83.59,6.22,6.22,0,0,1-2.79-.59A5.74,5.74,0,0,1,90.6,35.1a7.43,7.43,0,0,1-1.27-2.53,11.17,11.17,0,0,1-.44-3.21V26.72a11.29,11.29,0,0,1,.44-3.22A7.48,7.48,0,0,1,90.6,21a5.9,5.9,0,0,1,2.05-1.66,6.22,6.22,0,0,1,2.79-.6,6.54,6.54,0,0,1,2.84.6A6.14,6.14,0,0,1,100.4,21a7.6,7.6,0,0,1,1.34,2.54,10.94,10.94,0,0,1,.46,3.22Zm-3.56-2.67a10.75,10.75,0,0,0-.18-2A5.08,5.08,0,0,0,97.89,23a2.78,2.78,0,0,0-1-1.05,2.63,2.63,0,0,0-1.46-.38A2.45,2.45,0,0,0,94,22,2.72,2.72,0,0,0,93.09,23a5.35,5.35,0,0,0-.49,1.61,12.85,12.85,0,0,0-.15,2v2.67a12.81,12.81,0,0,0,.15,2A5.58,5.58,0,0,0,93.09,33,2.86,2.86,0,0,0,94,34.09a2.56,2.56,0,0,0,1.43.38,2.68,2.68,0,0,0,1.45-.38,3,3,0,0,0,1-1.07,5.74,5.74,0,0,0,.57-1.61,10.94,10.94,0,0,0,.18-2.05Z" transform="translate(-2.75 -2.82)"/><path d="M104.78,37.11V19h4.7a8.18,8.18,0,0,1,3.27.62,7.25,7.25,0,0,1,2.51,1.72,7.7,7.7,0,0,1,1.61,2.63,9.65,9.65,0,0,1,.57,3.37v1.5a9.56,9.56,0,0,1-.57,3.36,7.91,7.91,0,0,1-1.59,2.63,6.9,6.9,0,0,1-2.46,1.71,8,8,0,0,1-3.17.62Zm3.53-15.32v12.5h1.34a4,4,0,0,0,1.77-.38,3.62,3.62,0,0,0,1.32-1.08,5.15,5.15,0,0,0,.83-1.73,8.58,8.58,0,0,0,.29-2.31V27.27a8.56,8.56,0,0,0-.28-2.23,5.16,5.16,0,0,0-.84-1.73,3.91,3.91,0,0,0-1.37-1.12,4.23,4.23,0,0,0-1.89-.4Z" transform="translate(-2.75 -2.82)"/><path d="M131.35,29.15h-7.46v5.12h8.72v2.84H120.38V19h12.19V21.8h-8.68v4.58h7.46Z" transform="translate(-2.75 -2.82)"/><path d="M147.48,37.11H144l-5-11.71V37.11H135.4V19h3.53l5,11.66V19h3.52Z" transform="translate(-2.75 -2.82)"/><path d="M163.5,29.36a10.94,10.94,0,0,1-.46,3.22,7.55,7.55,0,0,1-1.34,2.53,6,6,0,0,1-2.12,1.65,6.49,6.49,0,0,1-2.83.59,6.25,6.25,0,0,1-2.79-.59,5.74,5.74,0,0,1-2.06-1.66,7.43,7.43,0,0,1-1.27-2.53,11.17,11.17,0,0,1-.44-3.21V26.72a11.29,11.29,0,0,1,.44-3.22A7.48,7.48,0,0,1,151.9,21a5.9,5.9,0,0,1,2-1.66,6.22,6.22,0,0,1,2.79-.6,6.5,6.5,0,0,1,2.84.6A6.14,6.14,0,0,1,161.7,21,7.6,7.6,0,0,1,163,23.5a10.94,10.94,0,0,1,.46,3.22ZM160,26.69a10.72,10.72,0,0,0-.19-2A5.34,5.34,0,0,0,159.2,23a3,3,0,0,0-1-1.05,2.68,2.68,0,0,0-1.47-.38,2.45,2.45,0,0,0-1.42.38A2.7,2.7,0,0,0,154.4,23a5.08,5.08,0,0,0-.5,1.61,12.85,12.85,0,0,0-.15,2v2.67a12.81,12.81,0,0,0,.15,2,5.29,5.29,0,0,0,.5,1.63,2.84,2.84,0,0,0,.92,1.07,2.56,2.56,0,0,0,1.43.38,2.74,2.74,0,0,0,1.46-.38,3,3,0,0,0,1-1.07,5.74,5.74,0,0,0,.57-1.61,10.91,10.91,0,0,0,.19-2.05Z" transform="translate(-2.75 -2.82)"/><path d="M179.5,21.8h-5.6V37.11h-3.52V21.8h-5.52V19H179.5Z" transform="translate(-2.75 -2.82)"/><path d="M192.65,29.15H185.2v5.12h8.71v2.84H181.68V19h12.2V21.8H185.2v4.58h7.45Z" transform="translate(-2.75 -2.82)"/></svg>