<svg xmlns="http://www.w3.org/2000/svg" viewBox="0 0 32 38">
    <path d="M14.14,39.5H2.86A.86.86,0,0,1,2,38.64V2.36a.85.85,0,0,1,.86-.86H14.14a.85.85,0,0,1,.86.86V8.64a.86.86,0,0,1-.86.86H10.86a.85.85,0,0,0-.86.86V30.64a.86.86,0,0,0,.86.86h3.28a.85.85,0,0,1,.86.86v6.28A.86.86,0,0,1,14.14,39.5Z" transform="translate(-2 -1.5)" style="fill:#fff"/>
    <path d="M33.16,39.5H21.84a.84.84,0,0,1-.84-.84V32.33a.83.83,0,0,1,.84-.83h3.32a.84.84,0,0,0,.84-.84V10.33a.83.83,0,0,0-.84-.83H21.84A.84.84,0,0,1,21,8.66V2.33a.83.83,0,0,1,.84-.83H33.45a.55.55,0,0,1,.55.55V38.66A.84.84,0,0,1,33.16,39.5Z" transform="translate(-2 -1.5)" style="fill:#686d76"/>
</svg>