<svg id="Слой_1" data-name="Слой 1" xmlns="http://www.w3.org/2000/svg" viewBox="0 0 179.16 38"><defs><style>.cls-1{fill:#fff;}.cls-2{fill:#1e1e1e;}</style></defs><title>logo-full-slogan</title><polygon class="cls-1" points="13 38 0 38 0 0 13 0 13 8 8 8 8 30 13 30 13 38"/><polygon class="cls-2" points="44 38 31 38 31 30 36 30 36 8 31 8 31 0 44 0 44 38"/><path d="M68.58,24.71a2,2,0,0,0-.75-1.64,9.28,9.28,0,0,0-2.61-1.22,24.44,24.44,0,0,1-3.07-1.22q-3.87-1.89-3.87-5.22a4.71,4.71,0,0,1,1-2.92,6.23,6.23,0,0,1,2.73-2,10.55,10.55,0,0,1,4-.7,9.32,9.32,0,0,1,3.85.76,6.09,6.09,0,0,1,2.64,2.19A5.68,5.68,0,0,1,73.38,16H68.59a2.44,2.44,0,0,0-.74-1.89,3,3,0,0,0-2-.67,3.26,3.26,0,0,0-2,.57,1.73,1.73,0,0,0-.74,1.44,1.76,1.76,0,0,0,.82,1.39,10.25,10.25,0,0,0,2.88,1.28,18,18,0,0,1,3.39,1.43,5.71,5.71,0,0,1,3.23,5.13,4.86,4.86,0,0,1-2,4.1A8.7,8.7,0,0,1,66,30.27a10.67,10.67,0,0,1-4.38-.87,6.65,6.65,0,0,1-3-2.37,6.22,6.22,0,0,1-1-3.48h4.81a3,3,0,0,0,.83,2.35,3.9,3.9,0,0,0,2.69.76,3.11,3.11,0,0,0,1.88-.51A1.69,1.69,0,0,0,68.58,24.71Z"/><path d="M79.86,15.21,80,16.94a5,5,0,0,1,4.22-2,4.25,4.25,0,0,1,3.46,1.38,6.61,6.61,0,0,1,1.18,4.16V30H84.25V20.66A2.5,2.5,0,0,0,83.8,19a2.09,2.09,0,0,0-1.64-.52,2.18,2.18,0,0,0-2,1.06V30H75.54V15.21Z"/><path d="M91.38,11.39a2.06,2.06,0,0,1,.71-1.61,3,3,0,0,1,3.7,0,2.06,2.06,0,0,1,.71,1.61A2,2,0,0,1,95.79,13a3,3,0,0,1-3.7,0A2,2,0,0,1,91.38,11.39ZM96.28,30H91.66V15.21h4.62Z"/><path d="M112.85,22.71a8.93,8.93,0,0,1-1.55,5.5,5,5,0,0,1-4.19,2.06,4.23,4.23,0,0,1-3.35-1.49v6.91H99.15V15.21h4.31l.13,1.36a4.29,4.29,0,0,1,3.49-1.64,5,5,0,0,1,4.25,2,9,9,0,0,1,1.52,5.54Zm-4.61-.29c0-2.62-.76-3.93-2.3-3.93a2.16,2.16,0,0,0-2.18,1.17v5.83A2.24,2.24,0,0,0,106,26.72q2.2,0,2.27-3.8Z"/><path d="M128.61,22.71a8.93,8.93,0,0,1-1.55,5.5,5,5,0,0,1-4.19,2.06,4.25,4.25,0,0,1-3.35-1.49v6.91h-4.61V15.21h4.31l.14,1.36a4.26,4.26,0,0,1,3.48-1.64,5,5,0,0,1,4.25,2,9,9,0,0,1,1.52,5.54Zm-4.6-.29q0-3.93-2.3-3.93a2.16,2.16,0,0,0-2.19,1.17v5.83a2.24,2.24,0,0,0,2.22,1.23q2.19,0,2.27-3.8Z"/><path d="M147.71,20.46a11.74,11.74,0,0,1-1.08,5.15,7.89,7.89,0,0,1-3.07,3.45A8.48,8.48,0,0,1,139,30.27a8.66,8.66,0,0,1-4.51-1.17,8,8,0,0,1-3.07-3.34,11.5,11.5,0,0,1-1.16-5V19.65a11.72,11.72,0,0,1,1.08-5.16A7.94,7.94,0,0,1,134.44,11a9.1,9.1,0,0,1,9.07,0,8.12,8.12,0,0,1,3.09,3.43,11.51,11.51,0,0,1,1.11,5.09Zm-4.88-.84a8.34,8.34,0,0,0-1-4.5A3.18,3.18,0,0,0,139,13.58q-3.6,0-3.81,5.41l0,1.47a8.52,8.52,0,0,0,1,4.49,3.36,3.36,0,0,0,5.68,0,8.34,8.34,0,0,0,1-4.44Z"/><path d="M154.21,15.21l.15,1.73a5,5,0,0,1,4.22-2A4.22,4.22,0,0,1,162,16.31a6.61,6.61,0,0,1,1.19,4.16V30h-4.63V20.66a2.5,2.5,0,0,0-.45-1.65,2.08,2.08,0,0,0-1.64-.52,2.2,2.2,0,0,0-2,1.06V30h-4.6V15.21Z"/><path d="M172.92,30.27a7.59,7.59,0,0,1-5.51-2,7,7,0,0,1-2.1-5.28v-.39a9.08,9.08,0,0,1,.84-4,6.2,6.2,0,0,1,2.45-2.69,7.45,7.45,0,0,1,3.83-1,6.39,6.39,0,0,1,4.92,1.94,7.56,7.56,0,0,1,1.81,5.39v1.79H170a3.31,3.31,0,0,0,1.08,2,3.21,3.21,0,0,0,2.16.71,4.14,4.14,0,0,0,3.42-1.53l2.1,2.48a5.84,5.84,0,0,1-2.44,1.9A8.24,8.24,0,0,1,172.92,30.27Zm-.52-11.78c-1.35,0-2.15.89-2.4,2.68h4.65v-.36a2.3,2.3,0,0,0-.56-1.71A2.25,2.25,0,0,0,172.4,18.49Z"/></svg>