<svg id="Слой_1" data-name="Слой 1" xmlns="http://www.w3.org/2000/svg" viewBox="0 0 163.68 38"><defs><style>.cls-1{fill:#fff;}</style></defs><title>logo-full-slogan-small-font</title><polygon class="cls-1" points="13 38 0 38 0 0 13 0 13 8 8 8 8 30 13 30 13 38"/><polygon points="44 38 31 38 31 30 36 30 36 8 31 8 31 0 44 0 44 38"/><path d="M68.9,25a1.72,1.72,0,0,0-.64-1.41,8.26,8.26,0,0,0-2.25-1,22.63,22.63,0,0,1-2.62-1Q60.08,19.84,60.07,17a4,4,0,0,1,.83-2.5,5.42,5.42,0,0,1,2.34-1.69,9.12,9.12,0,0,1,3.4-.6,7.89,7.89,0,0,1,3.29.66,5.18,5.18,0,0,1,2.27,1.86A4.9,4.9,0,0,1,73,17.5h-4.1a2,2,0,0,0-.64-1.62,2.51,2.51,0,0,0-1.73-.58,2.85,2.85,0,0,0-1.74.49,1.43,1.43,0,0,0,.07,2.43,8.91,8.91,0,0,0,2.47,1.1,15.84,15.84,0,0,1,2.91,1.22A4.9,4.9,0,0,1,73,24.94a4.15,4.15,0,0,1-1.69,3.51,7.51,7.51,0,0,1-4.63,1.28A9.26,9.26,0,0,1,62.94,29a5.68,5.68,0,0,1-2.53-2,5.31,5.31,0,0,1-.85-3h4.12a2.65,2.65,0,0,0,.71,2,3.36,3.36,0,0,0,2.3.65,2.71,2.71,0,0,0,1.62-.44A1.48,1.48,0,0,0,68.9,25Z" transform="translate(0 -1.5)"/><path d="M78.57,16.82l.12,1.48a4.34,4.34,0,0,1,3.63-1.72,3.6,3.6,0,0,1,3,1.19,5.59,5.59,0,0,1,1,3.56V29.5h-4v-8a2.12,2.12,0,0,0-.39-1.41,1.8,1.8,0,0,0-1.41-.45,1.88,1.88,0,0,0-1.72.91v9h-4V16.82Z" transform="translate(0 -1.5)"/><path d="M88.44,13.55a1.79,1.79,0,0,1,.61-1.39,2.64,2.64,0,0,1,3.17,0,1.88,1.88,0,0,1,0,2.77,2.6,2.6,0,0,1-3.17,0A1.78,1.78,0,0,1,88.44,13.55Zm4.2,16h-4V16.82h4Z" transform="translate(0 -1.5)"/><path d="M106.84,23.25A7.64,7.64,0,0,1,105.51,28a4.26,4.26,0,0,1-3.59,1.76,3.67,3.67,0,0,1-2.87-1.28v5.92h-4V16.82h3.69L98.91,18a3.65,3.65,0,0,1,3-1.41,4.3,4.3,0,0,1,3.64,1.73,7.72,7.72,0,0,1,1.3,4.75Zm-4-.25c0-2.25-.65-3.37-2-3.37a1.85,1.85,0,0,0-1.87,1v5a1.92,1.92,0,0,0,1.9,1.05c1.26,0,1.9-1.08,1.94-3.25Z" transform="translate(0 -1.5)"/><path d="M120.35,23.25A7.64,7.64,0,0,1,119,28a4.26,4.26,0,0,1-3.59,1.76,3.67,3.67,0,0,1-2.87-1.28v5.92h-4V16.82h3.69l.12,1.17a3.65,3.65,0,0,1,3-1.41,4.29,4.29,0,0,1,3.64,1.73,7.72,7.72,0,0,1,1.3,4.75ZM116.41,23c0-2.25-.66-3.37-2-3.37a1.85,1.85,0,0,0-1.88,1v5a1.93,1.93,0,0,0,1.9,1.05c1.26,0,1.91-1.08,2-3.25Z" transform="translate(0 -1.5)"/><path d="M136.73,21.32a10,10,0,0,1-.93,4.41,6.78,6.78,0,0,1-2.63,3,7.87,7.87,0,0,1-7.75,0,6.78,6.78,0,0,1-2.63-2.87,9.7,9.7,0,0,1-1-4.27v-1a10,10,0,0,1,.92-4.43,6.83,6.83,0,0,1,2.63-3,7.45,7.45,0,0,1,3.91-1,7.27,7.27,0,0,1,3.87,1,7,7,0,0,1,2.64,2.94,9.81,9.81,0,0,1,1,4.36Zm-4.19-.72a7.15,7.15,0,0,0-.85-3.86,2.71,2.71,0,0,0-2.43-1.32q-3.09,0-3.27,4.64v1.26a7.41,7.41,0,0,0,.83,3.85,2.9,2.9,0,0,0,4.88,0,7.26,7.26,0,0,0,.85-3.81Z" transform="translate(0 -1.5)"/><path d="M142.29,16.82l.13,1.48A4.32,4.32,0,0,1,146,16.58a3.62,3.62,0,0,1,3,1.19,5.59,5.59,0,0,1,1,3.56V29.5h-4v-8a2.18,2.18,0,0,0-.38-1.41,1.8,1.8,0,0,0-1.41-.45,1.87,1.87,0,0,0-1.72.91v9h-3.95V16.82Z" transform="translate(0 -1.5)"/><path d="M158.34,29.73A6.54,6.54,0,0,1,153.61,28a6,6,0,0,1-1.8-4.53v-.33a7.79,7.79,0,0,1,.72-3.43,5.26,5.26,0,0,1,2.1-2.3,6.29,6.29,0,0,1,3.28-.82,5.48,5.48,0,0,1,4.22,1.66,6.53,6.53,0,0,1,1.55,4.62V24.4h-7.85a2.84,2.84,0,0,0,.92,1.67,2.75,2.75,0,0,0,1.85.61,3.53,3.53,0,0,0,2.93-1.31l1.81,2.13a5.11,5.11,0,0,1-2.09,1.63A7.15,7.15,0,0,1,158.34,29.73Zm-.45-10.1c-1.16,0-1.84.76-2.06,2.3h4v-.31a1.93,1.93,0,0,0-.48-1.47A1.9,1.9,0,0,0,157.89,19.63Z" transform="translate(0 -1.5)"/></svg>