<svg id="Слой_1" data-name="Слой 1" xmlns="http://www.w3.org/2000/svg" viewBox="0 0 174.66 38"><defs><style>.cls-1{fill:#fff;}</style></defs><title>logo-full-slogan-second</title><polygon class="cls-1" points="13 38 0 38 0 0 13 0 13 8 8 8 8 30 13 30 13 38"/><polygon points="44 38 31 38 31 30 36 30 36 8 31 8 31 0 44 0 44 38"/><path d="M67.9,25.46a1.69,1.69,0,0,0-.64-1.4A7.93,7.93,0,0,0,65,23a21,21,0,0,1-2.62-1c-2.21-1.08-3.32-2.58-3.32-4.48A4,4,0,0,1,59.9,15a5.32,5.32,0,0,1,2.34-1.68,8.92,8.92,0,0,1,3.4-.61,7.89,7.89,0,0,1,3.29.66,5.2,5.2,0,0,1,2.27,1.87A4.87,4.87,0,0,1,72,18h-4.1a2,2,0,0,0-.64-1.62,2.51,2.51,0,0,0-1.73-.57,2.85,2.85,0,0,0-1.74.48,1.43,1.43,0,0,0,.07,2.43,8.91,8.91,0,0,0,2.47,1.1,15.14,15.14,0,0,1,2.91,1.23A4.87,4.87,0,0,1,72,25.44,4.18,4.18,0,0,1,70.32,29a7.51,7.51,0,0,1-4.63,1.27,9.26,9.26,0,0,1-3.75-.74,5.68,5.68,0,0,1-2.53-2,5.28,5.28,0,0,1-.85-3h4.12a2.62,2.62,0,0,0,.71,2,3.36,3.36,0,0,0,2.3.65,2.71,2.71,0,0,0,1.62-.44A1.47,1.47,0,0,0,67.9,25.46Z"/><path d="M88.37,30H84.28l-6-10.62V30H74.12V12.94h4.11l6,10.61V12.94h4.1Z"/><path d="M95.35,30h-4.1V12.94h4.1Z"/><path d="M102.33,24.21V30H98.21V12.94H105a8,8,0,0,1,3.47.72,5.42,5.42,0,0,1,2.33,2.05,5.58,5.58,0,0,1,.82,3,5,5,0,0,1-1.78,4A7.46,7.46,0,0,1,105,24.21Zm0-3.18H105a2.55,2.55,0,0,0,1.82-.59,2.22,2.22,0,0,0,.63-1.69,2.74,2.74,0,0,0-.64-1.91,2.29,2.29,0,0,0-1.76-.73h-2.74Z"/><path d="M118,24.21V30h-4.11V12.94h6.8a8,8,0,0,1,3.47.72,5.42,5.42,0,0,1,2.33,2.05,5.58,5.58,0,0,1,.82,3,5,5,0,0,1-1.78,4,7.46,7.46,0,0,1-4.91,1.49ZM118,21h2.69a2.6,2.6,0,0,0,1.83-.59,2.25,2.25,0,0,0,.62-1.69,2.74,2.74,0,0,0-.64-1.91,2.29,2.29,0,0,0-1.76-.73H118Z"/><path d="M143.91,21.82a10,10,0,0,1-.93,4.42,6.9,6.9,0,0,1-2.63,3,7.9,7.9,0,0,1-7.75,0A6.75,6.75,0,0,1,130,26.37a9.78,9.78,0,0,1-1-4.28v-1a10.05,10.05,0,0,1,.92-4.43,6.89,6.89,0,0,1,2.63-3,7.83,7.83,0,0,1,7.78,0A7,7,0,0,1,143,16.67a9.81,9.81,0,0,1,1,4.36Zm-4.19-.72a7.15,7.15,0,0,0-.85-3.86,2.71,2.71,0,0,0-2.43-1.32q-3.09,0-3.27,4.65v1.25a7.39,7.39,0,0,0,.83,3.85,2.9,2.9,0,0,0,4.88,0,7.22,7.22,0,0,0,.85-3.81Z"/><path d="M160.28,30h-4.09l-6.05-10.62V30H146V12.94h4.11l6,10.61V12.94h4.11Z"/><path d="M173.46,22.76H167v4.07h7.64V30H162.88V12.94h11.78v3.17H167v3.6h6.47Z"/></svg>