<?xml version="1.0" standalone="no"?>
<!DOCTYPE svg PUBLIC "-//W3C//DTD SVG 20010904//EN"
 "http://www.w3.org/TR/2001/REC-SVG-20010904/DTD/svg10.dtd">
<svg version="1.0" xmlns="http://www.w3.org/2000/svg"
 width="704.000000pt" height="704.000000pt" viewBox="0 0 704.000000 704.000000"
 preserveAspectRatio="xMidYMid meet">
<metadata>
Created by potrace 1.11, written by Peter Selinger 2001-2013
</metadata>
<g transform="translate(0.000000,704.000000) scale(0.100000,-0.100000)"
fill="#000000" stroke="none">
<path d="M0 3520 l0 -3040 1041 0 1041 0 -4 25 c-3 14 -2 25 3 25 4 0 4 14 -1
30 -5 17 -5 30 -1 30 4 0 5 22 1 50 -4 27 -4 50 -1 50 7 0 5 146 -3 166 -3 7
-1 14 4 14 5 0 5 13 0 30 -5 17 -5 30 -2 30 4 0 6 17 4 37 -1 21 -3 44 -2 51
0 16 0 37 -1 94 0 26 2 52 6 58 3 5 2 10 -4 10 -6 0 -6 11 -1 29 4 16 6 32 3
35 -7 7 -10 86 -3 86 7 0 3 147 -4 166 -3 7 -1 14 4 14 5 0 5 13 0 30 -5 17
-6 30 -2 30 4 0 7 18 7 40 0 22 -3 40 -6 40 -4 0 -4 15 0 33 13 54 -6 80 -56
78 -16 -1 -34 -1 -95 0 -26 0 -52 -2 -58 -6 -5 -3 -10 -2 -10 4 0 6 -11 6 -30
1 -16 -5 -30 -5 -30 -1 0 4 -22 5 -50 1 -28 -4 -50 -4 -50 -1 0 3 -17 5 -37 4
-47 -2 -93 -3 -115 -3 -10 0 -26 0 -35 0 -10 0 -39 0 -65 1 -26 0 -52 -2 -58
-6 -5 -3 -10 -2 -10 4 0 6 -11 6 -30 1 -17 -5 -32 -5 -35 0 -3 5 -13 6 -22 3
-13 -5 -15 -2 -11 15 4 12 2 24 -3 27 -4 3 -4 16 1 29 5 13 6 26 4 29 -5 5 -8
85 -4 97 5 16 4 150 -1 150 -4 0 -3 16 1 35 4 19 4 35 0 35 -5 0 -5 12 -1 28
5 15 5 36 1 47 -4 11 -5 24 -2 29 7 13 8 146 1 146 -4 0 -3 16 1 35 4 19 4 35
0 35 -5 0 -5 12 -1 28 5 15 5 36 1 47 -4 11 -5 24 -2 29 7 13 8 146 1 146 -4
0 -3 16 1 35 4 19 4 35 0 35 -5 0 -5 12 -1 28 5 15 5 36 1 47 -4 11 -5 24 -2
29 7 13 8 146 1 146 -4 0 -3 16 1 35 4 19 4 35 0 35 -5 0 -5 12 -1 28 7 28 6
75 -3 99 -3 7 -1 13 4 13 5 0 5 13 0 30 -5 17 -5 30 0 30 5 0 5 13 0 30 -5 17
-5 30 0 30 5 0 5 13 0 30 -5 17 -5 30 0 30 5 0 5 13 0 30 -5 17 -5 30 0 30 5
0 5 13 0 30 -5 17 -5 30 0 30 5 0 5 13 0 30 -5 17 -5 30 0 30 5 0 5 13 0 30
-5 17 -5 30 0 30 5 0 5 13 0 30 -5 17 -5 30 0 30 5 0 5 13 0 30 -5 17 -5 30 0
30 5 0 5 13 0 30 -5 17 -5 30 0 30 5 0 5 13 0 30 -5 17 -5 30 0 30 5 0 5 13 0
30 -5 17 -5 30 0 30 5 0 5 13 0 30 -5 17 -5 30 0 30 5 0 5 13 0 30 -5 17 -5
30 0 30 5 0 5 13 0 30 -5 17 -5 30 0 30 5 0 5 13 0 30 -5 17 -5 30 0 30 5 0 5
13 0 30 -5 17 -5 30 0 30 5 0 5 13 0 30 -5 17 -5 30 0 30 5 0 5 13 0 30 -5 17
-5 30 0 30 5 0 5 13 0 30 -5 17 -5 30 0 30 5 0 5 13 0 30 -5 17 -5 30 0 30 5
0 5 13 0 30 -5 17 -5 30 0 30 5 0 5 13 0 30 -5 17 -5 30 0 30 5 0 5 13 0 30
-5 17 -5 30 0 30 5 0 5 13 0 30 -5 17 -5 30 0 30 5 0 5 13 0 30 -5 17 -5 30 0
30 5 0 5 13 0 30 -5 17 -5 30 0 30 5 0 5 13 0 30 -5 17 -5 30 0 30 5 0 5 13 0
30 -5 17 -5 32 0 35 5 3 6 15 0 29 -4 12 -4 29 0 36 5 8 5 21 0 30 -4 8 -4 22
0 31 5 8 5 21 0 29 -4 7 -4 24 0 36 6 14 5 26 0 29 -16 10 0 33 25 38 14 2 27
2 30 -1 3 -4 31 -5 63 -3 31 1 63 2 70 2 6 -1 19 -1 27 -1 34 0 52 0 97 -1 26
0 52 2 58 6 5 3 10 2 10 -4 0 -6 11 -6 30 -1 17 5 30 5 30 1 0 -4 23 -5 50 -1
28 4 50 4 50 1 0 -7 108 -4 127 4 7 2 15 0 18 -5 3 -6 15 -6 30 0 13 5 27 6
29 1 10 -15 54 0 59 20 3 10 1 19 -3 19 -5 0 -5 13 0 30 5 16 5 32 1 34 -4 3
-5 28 -1 55 3 28 3 56 -1 63 -4 6 -3 22 1 34 6 14 5 26 -1 29 -5 4 -7 10 -4
15 7 12 11 118 4 125 -3 2 -3 27 1 55 3 27 3 55 -1 61 -4 7 -3 25 1 40 5 16 5
29 0 29 -5 0 -5 13 0 30 5 17 5 30 0 30 -5 0 -5 13 0 29 4 16 6 32 3 35 -7 6
-10 116 -3 116 7 0 3 147 -4 166 -3 7 -1 14 4 14 5 0 5 13 0 30 -5 17 -5 30
-2 30 4 0 6 17 4 38 -1 20 -3 43 -2 50 0 6 0 20 0 30 0 9 0 29 0 45 l0 27
-1040 0 -1040 0 0 -3040z"/>
<path d="M4957 6540 c-3 -11 -1 -22 4 -25 4 -3 5 -16 0 -28 -5 -12 -5 -31 -1
-41 3 -11 4 -37 0 -57 -4 -21 -4 -43 1 -50 4 -7 4 -20 -1 -29 -5 -9 -5 -22 0
-30 5 -8 7 -17 4 -22 -6 -10 -9 -116 -3 -122 3 -3 2 -31 -1 -61 -3 -31 -3 -58
2 -61 4 -3 3 -16 -2 -29 -6 -15 -6 -27 1 -30 5 -4 7 -10 4 -15 -7 -12 -11
-118 -4 -125 3 -2 3 -27 -1 -55 -3 -27 -3 -55 1 -62 4 -6 4 -19 -1 -28 -5 -9
-5 -22 0 -30 5 -8 7 -17 4 -22 -7 -10 -9 -116 -3 -123 3 -2 3 -27 -1 -55 -3
-27 -3 -55 1 -62 4 -6 3 -22 -1 -34 -6 -14 -5 -26 1 -29 5 -4 7 -11 4 -16 -10
-15 36 -27 72 -19 18 5 33 4 33 0 0 -4 18 -4 39 0 22 4 45 4 52 -1 7 -4 20 -4
30 1 9 5 19 6 23 3 8 -8 102 -7 116 2 5 3 10 2 10 -4 0 -6 11 -6 30 -1 17 5
30 5 30 1 0 -4 20 -5 45 -1 25 4 47 5 50 2 2 -3 64 -5 136 -5 l131 1 -4 -29
c-3 -16 -1 -29 4 -29 5 0 6 -4 3 -10 -8 -13 -10 -128 -2 -136 3 -4 2 -14 -3
-23 -5 -10 -5 -23 0 -31 5 -8 5 -21 0 -30 -5 -9 -5 -22 0 -30 5 -8 5 -21 0
-30 -5 -9 -5 -22 0 -30 5 -8 5 -21 0 -30 -5 -9 -5 -22 0 -30 5 -8 5 -21 0 -30
-5 -9 -5 -22 0 -30 5 -8 5 -21 0 -30 -5 -9 -5 -22 0 -30 5 -8 5 -21 0 -30 -5
-9 -5 -22 0 -30 5 -8 5 -21 0 -30 -5 -9 -5 -22 0 -30 5 -8 5 -21 0 -30 -5 -9
-5 -22 -1 -29 5 -7 5 -29 1 -49 -3 -21 -3 -49 1 -65 4 -15 4 -27 1 -27 -4 0
-7 -29 -7 -65 0 -36 3 -65 7 -65 4 0 3 -13 -2 -30 -5 -17 -5 -30 0 -30 5 0 5
-13 0 -30 -5 -16 -5 -30 0 -30 4 0 5 -15 1 -32 -4 -18 -4 -48 0 -65 3 -18 3
-33 -2 -33 -4 0 -4 -13 1 -30 5 -17 5 -30 0 -30 -5 0 -5 -13 0 -29 4 -15 4
-34 0 -42 -5 -7 -5 -20 0 -29 5 -9 5 -22 0 -30 -5 -8 -5 -21 0 -30 5 -9 5 -22
0 -30 -5 -8 -5 -21 0 -30 5 -9 5 -22 0 -30 -5 -8 -5 -21 0 -30 5 -9 5 -22 0
-30 -5 -8 -5 -21 0 -30 5 -9 5 -22 0 -30 -5 -8 -5 -21 0 -30 5 -9 5 -22 0 -30
-5 -8 -5 -21 0 -30 5 -9 5 -22 0 -30 -5 -8 -5 -21 0 -30 5 -9 5 -22 0 -30 -5
-8 -5 -21 0 -30 5 -9 5 -22 0 -30 -5 -8 -5 -21 0 -30 5 -9 5 -22 0 -30 -5 -8
-5 -21 -1 -29 4 -9 4 -32 1 -51 -3 -19 -3 -47 1 -62 4 -16 5 -28 1 -28 -4 0
-7 -29 -7 -65 0 -36 3 -65 7 -65 4 0 3 -13 -2 -30 -5 -17 -5 -30 0 -30 5 0 5
-13 0 -30 -5 -16 -5 -30 0 -30 4 0 5 -15 1 -32 -4 -18 -4 -48 0 -65 3 -18 3
-33 -2 -33 -4 0 -4 -13 1 -30 5 -17 5 -30 0 -30 -5 0 -5 -13 0 -29 4 -15 4
-34 0 -42 -5 -7 -5 -20 0 -29 5 -9 5 -22 0 -30 -5 -8 -5 -21 0 -30 5 -9 5 -22
0 -30 -5 -8 -5 -21 0 -30 5 -9 5 -22 0 -30 -5 -8 -5 -21 0 -30 5 -9 5 -22 0
-30 -5 -8 -5 -21 0 -30 5 -9 5 -22 0 -30 -5 -8 -5 -21 0 -30 5 -9 5 -22 0 -30
-5 -8 -5 -21 0 -30 5 -9 5 -22 0 -30 -5 -8 -5 -21 0 -30 5 -9 5 -22 0 -30 -5
-8 -5 -21 0 -30 5 -9 5 -22 0 -30 -5 -8 -5 -21 0 -30 5 -9 5 -22 0 -30 -5 -8
-6 -18 -3 -23 7 -12 8 -106 0 -113 -3 -3 -1 -19 3 -35 5 -17 5 -29 0 -29 -5 0
-7 -7 -3 -16 10 -26 -22 -44 -58 -34 -16 5 -29 5 -29 0 0 -7 -47 1 -63 10 -1
1 -14 -3 -29 -9 -16 -6 -30 -6 -33 -1 -3 5 -18 5 -35 0 -17 -5 -30 -5 -30 -1
0 4 -20 5 -45 1 -25 -4 -47 -4 -50 -1 -7 6 -113 3 -125 -4 -5 -3 -11 -1 -15 4
-3 7 -15 7 -30 1 -13 -5 -26 -6 -29 -2 -3 5 -30 5 -61 2 -31 -3 -58 -3 -61 1
-2 4 -18 4 -34 -1 -17 -5 -30 -5 -30 0 0 4 -9 6 -19 3 -20 -5 -35 -49 -20 -59
5 -2 4 -16 -1 -29 -5 -13 -5 -27 -1 -30 5 -3 5 -21 1 -40 -4 -19 -4 -35 0 -35
5 0 5 -13 0 -29 -4 -16 -6 -32 -3 -35 8 -8 9 -116 1 -116 -4 0 -3 -13 2 -30 5
-16 6 -30 2 -30 -8 0 -7 -109 1 -116 3 -3 1 -19 -3 -35 -5 -16 -5 -29 0 -29 5
0 5 -13 0 -30 -5 -17 -5 -30 0 -30 5 0 5 -13 0 -29 -4 -16 -6 -32 -3 -35 7 -6
10 -116 3 -116 -7 0 -3 -147 4 -166 3 -7 1 -14 -4 -14 -5 0 -5 -13 0 -30 5
-16 5 -30 2 -30 -4 0 -6 -17 -4 -37 1 -21 3 -44 2 -50 0 -7 0 -21 0 -30 0 -10
0 -30 0 -46 l0 -27 1040 0 1040 0 0 3040 0 3040 -1039 0 c-1030 0 -1039 0
-1044 -20z"/>
</g>
</svg>
